<?xml version="1.0" encoding="utf-8"?>
<svg xmlns="http://www.w3.org/2000/svg" version="1.1" width="593px" height="596px" style="shape-rendering:geometricPrecision; text-rendering:geometricPrecision; image-rendering:optimizeQuality; fill-rule:evenodd; clip-rule:evenodd">
  <g/>
  <g>
    <path style="opacity:1" fill="#282122" d="M 378.5,387.5 C 378.44,386.957 378.107,386.624 377.5,386.5C 376.502,395.81 376.168,405.143 376.5,414.5C 372.732,428.735 363.399,435.735 348.5,435.5C 340.037,434.743 331.704,433.577 323.5,432C 346.917,452.732 365.75,476.898 380,504.5C 381.894,512.27 379.061,517.437 371.5,520C 369.167,520.667 366.833,520.667 364.5,520C 281.792,490.073 196.792,469.407 109.5,458C 99.7812,453.31 96.6145,445.81 100,435.5C 116.667,408.167 133.333,380.833 150,353.5C 152.98,350.868 155.48,348.035 157.5,345C 156.41,339.062 154.91,333.229 153,327.5C 152.439,326.978 151.772,326.645 151,326.5C 135.942,335.246 119.775,339.579 102.5,339.5C 101.063,337.979 100.396,336.145 100.5,334C 107.787,314.583 114.954,295.083 122,275.5C 122.667,272.5 122.667,269.5 122,266.5C 111.279,220.123 120.279,178.123 149,140.5C 156.197,132.969 163.697,125.802 171.5,119C 179.703,113.065 188.37,107.898 197.5,103.5C 193.827,100.993 190.66,97.9925 188,94.5C 187.379,88.122 190.212,85.622 196.5,87C 199.765,89.549 203.265,91.7157 207,93.5C 209.498,89.8378 211.498,85.8378 213,81.5C 216.645,77.6263 220.312,77.6263 224,81.5C 223.954,86.6183 223.287,91.6183 222,96.5C 279.975,88.3304 326.308,107.664 361,154.5C 369.55,167.267 376.217,180.934 381,195.5C 382.167,196.667 383.333,197.833 384.5,199C 405.25,211.123 425.75,223.623 446,236.5C 446.978,239.669 446.478,242.503 444.5,245C 426.114,257.296 405.781,264.129 383.5,265.5C 391.793,290.505 398.126,316.005 402.5,342C 402.624,344.59 401.958,346.923 400.5,349C 392.588,349.183 384.754,349.683 377,350.5C 376.333,357.167 376.333,363.833 377,370.5C 394.686,375.52 408.353,385.853 418,401.5C 422.253,410.938 427.253,419.938 433,428.5C 438.082,435.366 443.748,436.033 450,430.5C 453.842,422.288 455.842,413.622 456,404.5C 456.903,403.299 458.069,402.465 459.5,402C 474.26,401.034 488.927,401.367 503.5,403C 504.333,403.833 505.167,404.667 506,405.5C 508.757,423.643 505.09,440.309 495,455.5C 481.561,469.238 465.395,473.738 446.5,469C 435.333,463.167 426.833,454.667 421,443.5C 415.624,429.703 409.291,416.37 402,403.5C 395.637,395.965 387.804,390.631 378.5,387.5 Z"/>
  </g>
  <g>
    <path style="opacity:1" fill="#908989" d="M 236.5,106.5 C 298.698,106.163 341.865,134.497 366,191.5C 366.651,193.235 366.485,194.902 365.5,196.5C 343.271,203.469 320.938,209.802 298.5,215.5C 292.12,185.818 280.62,158.485 264,133.5C 256.421,123.918 247.587,115.752 237.5,109C 236.748,108.329 236.414,107.496 236.5,106.5 Z"/>
  </g>
  <g>
    <path style="opacity:1" fill="#918a8a" d="M 211.5,112.5 C 220.28,113.724 228.28,116.891 235.5,122C 251.431,136.185 263.431,153.185 271.5,173C 278.211,188.3 283.211,204.133 286.5,220.5C 283.478,220.804 280.478,221.304 277.5,222C 252.597,229.814 227.597,237.314 202.5,244.5C 201.558,244.392 200.725,244.059 200,243.5C 190.753,216.929 187.087,189.596 189,161.5C 190.637,142.241 198.137,125.908 211.5,112.5 Z"/>
  </g>
  <g>
    <path style="opacity:1" fill="#908989" d="M 184.5,125.5 C 185.043,125.56 185.376,125.893 185.5,126.5C 175.559,150.61 172.726,175.61 177,201.5C 179.933,217.669 183.433,233.669 187.5,249.5C 175.178,252.991 162.845,256.491 150.5,260C 145.169,261.4 139.836,262.4 134.5,263C 123.766,215.426 134.932,173.926 168,138.5C 173.512,134.083 179.012,129.75 184.5,125.5 Z"/>
  </g>
  <g>
    <path style="opacity:1" fill="#908989" d="M 368.5,208.5 C 372.702,208.384 376.702,209.217 380.5,211C 396.203,220.847 411.87,230.681 427.5,240.5C 399.011,254.888 369.845,256.221 340,244.5C 328.805,239.821 318.305,233.988 308.5,227C 328.545,220.825 348.545,214.658 368.5,208.5 Z"/>
  </g>
  <g>
    <path style="opacity:1" fill="#fdfdfd" d="M 290.5,231.5 C 297.165,234.64 303.499,238.474 309.5,243C 328.14,254.575 348.306,261.742 370,264.5C 378.01,288.387 384.176,312.721 388.5,337.5C 381.492,337.334 374.492,337.5 367.5,338C 366.333,338.5 365.5,339.333 365,340.5C 364.667,364.5 364.333,388.5 364,412.5C 362.932,417.235 360.099,420.402 355.5,422C 329.977,422.035 306.31,415.368 284.5,402C 263.885,388.524 242.219,376.857 219.5,367C 218.978,366.439 218.645,365.772 218.5,365C 221.495,355.7 222.995,346.2 223,336.5C 219.482,333.974 215.648,331.808 211.5,330C 199.804,317.863 196.637,303.697 202,287.5C 207.917,275.638 217.417,270.805 230.5,273C 234.723,274.362 238.889,275.862 243,277.5C 244.627,277.375 246.127,276.875 247.5,276C 251.882,264.309 255.882,252.475 259.5,240.5C 270.171,238.312 280.504,235.312 290.5,231.5 Z"/>
  </g>
  <g>
    <path style="opacity:1" fill="#908989" d="M 184.5,262.5 C 185.5,262.5 186.5,262.5 187.5,262.5C 176.219,296.776 152.886,317.776 117.5,325.5C 123.088,310.574 128.588,295.574 134,280.5C 134.833,279.667 135.667,278.833 136.5,278C 152.655,273.013 168.655,267.846 184.5,262.5 Z"/>
  </g>
  <g>
    <path style="opacity:1" fill="#918a8a" d="M 161.5,359.5 C 220.674,376.249 273.341,404.749 319.5,445C 334.513,459.006 347.68,474.506 359,491.5C 362.053,496.272 364.553,501.272 366.5,506.5C 299.096,483.454 230.429,465.288 160.5,452C 144.44,449.827 128.44,447.493 112.5,445C 111.677,442.075 112.177,439.242 114,436.5C 129.857,410.773 145.691,385.106 161.5,359.5 Z"/>
  </g>
  <g/>
</svg>